<svg xmlns="http://www.w3.org/2000/svg" width="40" height="33" viewBox="0 0 40 33">
  <defs>
    <style>
      .cls-1 {
        fill: #fec009;
        fill-rule: evenodd;
      }
    </style>
  </defs>
  <path id="Forma_1" data-name="Forma 1" class="cls-1" d="M230.22,617.763l-0.9-4.545a6.275,6.275,0,0,0-1.293-2.977,4.16,4.16,0,0,0-3.266-1.434L219,609v-6c0-.862-0.168-2-1.031-2H196.562A1.562,1.562,0,0,0,195,602.56v22.081a6.251,6.251,0,0,0,6.127,6.236,4.689,4.689,0,0,0,8.839,0h9.678a4.688,4.688,0,0,0,8.837,0h4.957A1.561,1.561,0,0,0,235,629.32V623.7A6.1,6.1,0,0,0,230.22,617.763ZM219,612l5.766-.074c0.477,0,1.13,0,1.49,1.883a0.064,0.064,0,0,0,0,.007L227,618h-8v-6ZM205.547,630.88a1.56,1.56,0,1,1,1.562-1.56A1.563,1.563,0,0,1,205.547,630.88Zm18.516,0a1.56,1.56,0,1,1,1.562-1.56A1.563,1.563,0,0,1,224.063,630.88ZM232,628h-4c-0.645-1.816-1.9-3.359-3.937-3.359A5.817,5.817,0,0,0,219,628h-9a4.962,4.962,0,0,0-4.453-3.359,4.7,4.7,0,0,0-4.418,3.116,3.125,3.125,0,0,1-3-3.116V604.12L216,604v14H203a1.508,1.508,0,0,0-1.75,1.259A1.9,1.9,0,0,0,203,621h26a1.112,1.112,0,0,0,.246-0.24,2.971,2.971,0,0,1,2.629,2.944Z" transform="translate(-195 -601)"/>
</svg>
