<svg xmlns="http://www.w3.org/2000/svg" width="40" height="40" viewBox="0 0 40 40">
  <defs>
    <style>
      .cls-1 {
        fill: #fec009;
        fill-rule: evenodd;
      }
    </style>
  </defs>
  <path id="Forma_1_copy" data-name="Forma 1 copy" class="cls-1" d="M652.3,619.2a7.183,7.183,0,0,0-4.766,12.562v7.67a1.563,1.563,0,0,0,2.173,1.438l2.514-1.067,2.515,1.068a1.561,1.561,0,0,0,2.173-1.437V631.9A7.184,7.184,0,0,0,652.3,619.2Zm1.484,17.871-0.951-.4a1.557,1.557,0,0,0-1.222,0l-0.952.4v-3.687a7.2,7.2,0,0,0,3.125.036v3.651Zm-1.484-6.622a4.063,4.063,0,1,1,4.062-4.062A4.067,4.067,0,0,1,652.3,630.452Zm19.14-5.693h-5.468V606.021A5.026,5.026,0,0,0,660.948,601h-21.7a6.257,6.257,0,0,0-6.25,6.25v3.194a1.563,1.563,0,0,0,1.563,1.563L638,612v18c0,2.537,1.981,4.63,4.323,5.6a1.562,1.562,0,1,0,1.2-2.886C642.35,632.229,641,631.268,641,630V612l16.375,0.006a1.563,1.563,0,0,0,1.563-1.563v-4.423a1.9,1.9,0,0,1,1.895-1.9h0.115a1.9,1.9,0,0,1,1.9,1.9v25.036a5.01,5.01,0,0,0,.372,1.9h-1.622a1.562,1.562,0,1,0,0,3.124h6.427A5.025,5.025,0,0,0,673,631.057V626.32A1.562,1.562,0,0,0,671.437,624.759Zm-15.625-18.738L656,609H636l0.125-1.75A3.036,3.036,0,0,1,639,604h17A5.639,5.639,0,0,0,655.812,606.021Zm14.063,25.036a1.9,1.9,0,0,1-1.895,1.9h-0.116a1.9,1.9,0,0,1-1.895-1.9v-3.174h3.906v3.174Z" transform="translate(-633 -601)"/>
</svg>
