<svg xmlns="http://www.w3.org/2000/svg" width="40" height="40" viewBox="0 0 40 40">
  <defs>
    <style>
      .cls-1 {
        fill: #fec009;
        fill-rule: evenodd;
      }
    </style>
  </defs>
  <path id="Forma_1" data-name="Forma 1" class="cls-1" d="M992.641,621.079a4.687,4.687,0,1,0,0,9.374h6.64c0.027,0,.053,0,0.079,0s0.051,0,.077,0a1.562,1.562,0,0,0,1.563-1.562V616.625a6.244,6.244,0,0,0-2.59-5.061l-5.316-8.72a1.561,1.561,0,0,0-2.158-.514l-3.92,2.43-1.767-2.992a1.563,1.563,0,0,0-2.157-.539l-15.052,9.147h-2.353a1.524,1.524,0,1,1,0-3.047h2.891a1.563,1.563,0,1,0,0-3.125h-2.891a4.7,4.7,0,0,0-4.56,3.6,1.577,1.577,0,0,0-.127.618V634.75A6.257,6.257,0,0,0,967.25,641h27.5a6.242,6.242,0,0,0,5.93-4.27,1.563,1.563,0,1,0-2.965-.988A2.942,2.942,0,0,1,995,638H967a3.035,3.035,0,0,1-2.875-3.25L964,614a7.736,7.736,0,0,0,2,0h29c1.723,0,2.875.9,2.875,2.625v4.454h-5.234Zm5.234,6.249h-5.234a1.563,1.563,0,1,1,0-3.125h5.234v3.125ZM974,611l9.363-6.28,1.664,2.816a1.585,1.585,0,0,0,.114.225,1.462,1.462,0,0,0,.111.156L987,611H974Zm16,0-1.393-3.549,2.638-1.636L994,611h-4Z" transform="translate(-961 -601)"/>
</svg>
