<svg xmlns="http://www.w3.org/2000/svg" width="19" height="30" viewBox="0 0 19 30">
  <defs>
    <style>
      .cls-1 {
        fill: #fec009;
        fill-rule: evenodd;
      }
    </style>
  </defs>
  <path id="Shape_67_copy" data-name="Shape 67 copy" class="cls-1" d="M1045.07,6330h0.02a3.494,3.494,0,0,0,2.5-1.05l11.4-11.53a3.475,3.475,0,0,0,1.01-2.45,3.556,3.556,0,0,0-1-2.47l-11.33-11.44a3.549,3.549,0,0,0-5.05-.01l-0.54.55a3.5,3.5,0,0,0,.03,4.97l8.61,8.4-2.48,2.42a1.168,1.168,0,0,0-.02,1.65,1.183,1.183,0,0,0,1.67.02l3.34-3.25a1.188,1.188,0,0,0,.35-0.84,1.206,1.206,0,0,0-.35-0.84l-9.46-9.23a1.1,1.1,0,0,1-.35-0.82,1.123,1.123,0,0,1,.33-0.83l0.55-.56a1.171,1.171,0,0,1,1.68.01l11.33,11.45a1.171,1.171,0,0,1,0,1.63l-11.4,11.52a1.193,1.193,0,0,1-.83.36,1.148,1.148,0,0,1-.84-0.35l-0.54-.53a1.155,1.155,0,0,1-.34-0.84,1.142,1.142,0,0,1,.35-0.83l2.12-2.06a1.177,1.177,0,0,0-1.65-1.68l-2.12,2.07a3.5,3.5,0,0,0-.03,4.99l0.54,0.54A3.551,3.551,0,0,0,1045.07,6330Z" transform="translate(-1041 -6300)"/>
</svg>
