<svg xmlns="http://www.w3.org/2000/svg" width="19" height="30" viewBox="0 0 19 30">
  <defs>
    <style>
      .cls-1 {
        fill: #ccc;
        fill-rule: evenodd;
      }
    </style>
  </defs>
  <path class="cls-1" d="M873.928,6330h-0.017a3.516,3.516,0,0,1-2.5-1.05l-11.394-11.53a3.478,3.478,0,0,1-1.013-2.45,3.514,3.514,0,0,1,1.006-2.47l11.329-11.44a3.54,3.54,0,0,1,5.042-.01l0.548,0.55a3.5,3.5,0,0,1,1.016,2.5,3.45,3.45,0,0,1-1.054,2.47l-8.605,8.4,2.479,2.42a1.159,1.159,0,0,1,.017,1.65,1.178,1.178,0,0,1-1.666.02l-3.337-3.25a1.167,1.167,0,0,1-.354-0.84,1.183,1.183,0,0,1,.353-0.84l9.462-9.23a1.146,1.146,0,0,0,.35-0.82,1.159,1.159,0,0,0-.339-0.83l-0.548-.56a1.174,1.174,0,0,0-1.682.01l-11.329,11.45a1.166,1.166,0,0,0,0,1.63l11.394,11.52a1.2,1.2,0,0,0,.836.36,1.159,1.159,0,0,0,.839-0.35l0.539-.53a1.172,1.172,0,0,0-.009-1.67l-2.116-2.06a1.171,1.171,0,0,1-.017-1.66,1.187,1.187,0,0,1,1.666-.02l2.115,2.07a3.494,3.494,0,0,1,.026,4.99l-0.538.54A3.538,3.538,0,0,1,873.928,6330Z" transform="translate(-859 -6300)"/>
</svg>
