<svg xmlns="http://www.w3.org/2000/svg" xmlns:xlink="http://www.w3.org/1999/xlink" width="29" height="29" viewBox="0 0 29 29">
  <defs>
    <style>
      .cls-1 {
        fill: #212121;
        fill-rule: evenodd;
        filter: url(#filter);
      }
    </style>
    <filter id="filter" x="219" y="786" width="29" height="29" filterUnits="userSpaceOnUse">
      <feOffset result="offset" dy="1" in="SourceAlpha"/>
      <feGaussianBlur result="blur" stdDeviation="1"/>
      <feFlood result="flood" flood-color="#fff" flood-opacity="0.65"/>
      <feComposite result="composite" operator="in" in2="blur"/>
      <feBlend result="blend" in="SourceGraphic"/>
    </filter>
  </defs>
  <path id="Forma_1_copy" data-name="Forma 1 copy" class="cls-1" d="M227.008,801.438a1.015,1.015,0,1,1-1.016,1.015A1.015,1.015,0,0,1,227.008,801.438Zm0,5.079a1.015,1.015,0,1,1-1.016,1.014A1.014,1.014,0,0,1,227.008,806.517Zm-1.93-.508h3.859a1.016,1.016,0,1,0,0-2.032h-3.859A1.016,1.016,0,0,0,225.078,806.009Zm0-11.985h0.914v0.914a1.016,1.016,0,0,0,2.032,0v-0.914h0.913a1.016,1.016,0,1,0,0-2.032h-0.913v-0.914a1.016,1.016,0,0,0-2.032,0v0.914h-0.914A1.016,1.016,0,0,0,225.078,794.024Zm19.906,9.85A1.014,1.014,0,0,0,246,802.86v-12.8A4.067,4.067,0,0,0,241.937,786H224.063A4.067,4.067,0,0,0,220,790.063v17.875A4.067,4.067,0,0,0,224.063,812h17.874A4.067,4.067,0,0,0,246,807.938a1.016,1.016,0,1,0-2.031,0A2.008,2.008,0,0,1,242,810h-8V800h10l-0.031,2.861A1.014,1.014,0,0,0,244.984,803.874ZM232,810h-8a2.008,2.008,0,0,1-1.969-2.062L222,800h10v10Zm-0.016-11.965h-9.953v-7.972A2.008,2.008,0,0,1,224,788h8Zm2.032,0L234,788h8a1.981,1.981,0,0,1,2,2v8Zm7.19,4.749a1.018,1.018,0,0,0-1.436,0l-0.78.779-0.78-.779a1.016,1.016,0,0,0-1.436,1.437l0.78,0.779-0.78.78a1.016,1.016,0,0,0,1.436,1.437l0.78-.781,0.78,0.781a1.016,1.016,0,0,0,1.436-1.437l-0.779-.78,0.779-.779A1.016,1.016,0,0,0,241.206,802.784Zm-0.284-10.792h-3.859a1.016,1.016,0,0,0,0,2.032h3.859A1.016,1.016,0,0,0,240.922,791.992Z" transform="translate(-219 -786)"/>
</svg>
