<svg xmlns="http://www.w3.org/2000/svg" width="25.031" height="24.59" viewBox="0 0 25.031 24.59">
  <defs>
    <style>
      .cls-1 {
        fill: #f7bb0a;
        fill-rule: evenodd;
      }
    </style>
  </defs>
  <path class="cls-1" d="M414.331,2392.82a1.049,1.049,0,0,1-.737-0.3,1.014,1.014,0,0,1,0-1.45l8.335-8.2a1.054,1.054,0,0,1,1.473,0,1.014,1.014,0,0,1,0,1.45l-8.335,8.2A1.047,1.047,0,0,1,414.331,2392.82Zm8.334,0a1.045,1.045,0,0,1-.736-0.3l-8.335-8.2a1.014,1.014,0,0,1,0-1.45,1.054,1.054,0,0,1,1.473,0l8.335,8.2a1.014,1.014,0,0,1,0,1.45A1.049,1.049,0,0,1,422.665,2392.82Zm-4.181,7.18a12.466,12.466,0,0,1-8.826-3.61,12.118,12.118,0,0,1-3.487-10.77,12.388,12.388,0,0,1,10.679-10.12,12.587,12.587,0,0,1,11.277,4.35,1.01,1.01,0,0,1-.137,1.44,1.058,1.058,0,0,1-1.466-.13,10.514,10.514,0,0,0-9.41-3.63,10.315,10.315,0,0,0-8.887,8.42,10.11,10.11,0,0,0,2.9,8.99,10.461,10.461,0,0,0,17.717-6.07,10.274,10.274,0,0,0-.1-3.04,10.38,10.38,0,0,0-.285-1.15,1.023,1.023,0,0,1,.691-1.28,1.042,1.042,0,0,1,1.3.68,12.523,12.523,0,0,1,.342,1.38,12.272,12.272,0,0,1-10.185,14.37A13.923,13.923,0,0,1,418.484,2400Z" transform="translate(-405.969 -2375.41)"/>
</svg>
