<svg xmlns="http://www.w3.org/2000/svg" width="80" height="80" viewBox="0 0 80 80">
  <defs>
    <style>
      .cls-1 {
        fill: #fec009;
        fill-rule: evenodd;
      }
    </style>
  </defs>
  <path class="cls-1" d="M488,9873.87a34.675,34.675,0,0,1-6.344,19.94,3.123,3.123,0,1,1-5.125-3.57,28.5,28.5,0,0,0,5.219-16.37c0-16.88-15.14-30.62-33.75-30.62s-33.75,13.74-33.75,30.62a28.563,28.563,0,0,0,7.038,18.72,3.126,3.126,0,0,1,.519,3.2l-4.9,12.12,14.273-6.29a3.118,3.118,0,0,1,2.487-.02,36.843,36.843,0,0,0,30.785-.98,3.124,3.124,0,1,1,2.83,5.57,43.118,43.118,0,0,1-34.793,1.68l-20.1,8.86a3.122,3.122,0,0,1-4.158-4.03l7.095-17.55A34.559,34.559,0,0,1,408,9873.87a35.258,35.258,0,0,1,11.816-26.17,42.469,42.469,0,0,1,56.368,0A35.258,35.258,0,0,1,488,9873.87Zm-47.561-14.93a3.791,3.791,0,0,0-5.259-.19l-0.038.03a9.667,9.667,0,0,0-2.611,7.07c0.025,5,2.767,11.03,7.759,16.03s11.033,7.73,16.03,7.76l0.017,0.02a9.667,9.667,0,0,0,7.065-2.61l0.035-.04a3.791,3.791,0,0,0-.19-5.26c-2.942-2.84-5.884-4.55-8.808-1.69l-2.526,2.51a26.219,26.219,0,0,1-6.964-5.15l-0.178-.18a26.107,26.107,0,0,1-5.151-6.97l2.507-2.52C444.983,9864.82,443.275,9861.88,440.439,9858.94Z" transform="translate(-408 -9837)"/>
</svg>
