<svg xmlns="http://www.w3.org/2000/svg" width="80" height="80" viewBox="0 0 80 80">
  <defs>
    <style>
      .cls-1 {
        fill: #fec009;
        fill-rule: evenodd;
      }
    </style>
  </defs>
  <path id="Forma_1" data-name="Forma 1" class="cls-1" d="M999.075,9892.2l-15.868-15.81,12.1-12.07a16,16,0,1,0-22.634-22.63l-12.038,12.04-15.879-15.82a3.122,3.122,0,0,0-4.426.02l-19.421,19.61a3.121,3.121,0,0,0,.016,4.41l15.774,15.72-8.754,8.75a3.165,3.165,0,0,0-.8,1.37l-7.026,25.25a3.122,3.122,0,0,0,3.864,3.84l25.24-7.17a3.124,3.124,0,0,0,1.359-5.21l-15.912-15.97,37.076-37.08,13.789,13.79-28.384,28.31a3.144,3.144,0,0,0-.918,2.22,3.109,3.109,0,0,0,.924,2.21l18.241,18.11a3.134,3.134,0,0,0,2.2.91h0.014a3.113,3.113,0,0,0,2.207-.93l19.271-19.46A3.12,3.12,0,0,0,999.075,9892.2Zm-56.668,12.95-14.774,4.2,4.138-14.87Zm-1.288-31.9-13.577-13.53,15.024-15.17,4.958,4.94-6.156,6.26a3.124,3.124,0,0,0,4.455,4.38l6.129-6.23,4.265,4.25Zm35.046-26.21,0.928-.93a9.754,9.754,0,1,1,13.8,13.79l-0.932.93Zm1.415,62.41-13.792-13.69,15-14.95L983,9885l-6,6.05a3.124,3.124,0,1,0,4.435,4.4l5.992-6.03,5.032,5.01Z" transform="translate(-920 -9837)"/>
</svg>
