<svg xmlns="http://www.w3.org/2000/svg" width="80" height="80" viewBox="0 0 80 80">
  <defs>
    <style>
      .cls-1 {
        fill: #fec009;
        fill-rule: evenodd;
      }
    </style>
  </defs>
  <path id="Forma_1_copy" data-name="Forma 1 copy" class="cls-1" d="M1471.59,9873.4a14.373,14.373,0,0,0-9.53,25.13v15.34a3.126,3.126,0,0,0,4.35,2.88l5.03-2.14,5.03,2.14a3.028,3.028,0,0,0,1.22.25,3.152,3.152,0,0,0,1.72-.52,3.118,3.118,0,0,0,1.4-2.61V9898.8A14.37,14.37,0,0,0,1471.59,9873.4Zm2.97,35.75-1.9-.81a3.131,3.131,0,0,0-2.44,0l-1.91.81v-7.38a14.286,14.286,0,0,0,3.28.38,14.525,14.525,0,0,0,2.97-.3v7.3Zm-2.97-13.25a8.125,8.125,0,1,1,8.13-8.12A8.126,8.126,0,0,1,1471.59,9895.9Zm38.28-11.38h-10.93v-37.48A10.053,10.053,0,0,0,1488.9,9837h-43.4a12.517,12.517,0,0,0-12.5,12.5v6.39a3.126,3.126,0,0,0,3.13,3.12l6.87-.01v36c0,5.07,3.96,9.26,8.65,11.2a3.123,3.123,0,1,0,2.39-5.77c-2.34-.97-5.04-2.89-5.04-5.43v-36l32.75,0.01a3.126,3.126,0,0,0,3.13-3.12v-8.85a3.794,3.794,0,0,1,3.79-3.79h0.23a3.794,3.794,0,0,1,3.79,3.79v50.07a9.923,9.923,0,0,0,.74,3.79h-3.24a3.125,3.125,0,1,0,0,6.25h12.85a10.049,10.049,0,0,0,9.96-10.04v-9.47A3.126,3.126,0,0,0,1509.87,9884.52Zm-31.25-37.48L1479,9853h-40l0.25-3.5c0-3.45,2.3-6.5,5.75-6.5h34A11.2,11.2,0,0,0,1478.62,9847.04Zm28.13,50.07a3.794,3.794,0,0,1-3.79,3.79h-0.23a3.794,3.794,0,0,1-3.79-3.79v-6.34h7.81v6.34Z" transform="translate(-1433 -9837)"/>
</svg>
