<svg xmlns="http://www.w3.org/2000/svg" width="80" height="80" viewBox="0 0 80 80">
  <defs>
    <style>
      .cls-1 {
        fill: #fec009;
        fill-rule: evenodd;
      }
    </style>
  </defs>
  <path id="Forma_1" data-name="Forma 1" class="cls-1" d="M471.281,10284.2a9.35,9.35,0,1,0,0,18.7h13.594a3.12,3.12,0,0,0,3.125-3.1v-24.5a12.616,12.616,0,0,0-5.18-10.2l-10.632-17.4a3.171,3.171,0,0,0-1.943-1.4,2.86,2.86,0,0,0-2.372.4l-7.84,4.8-3.536-6a3.122,3.122,0,0,0-1.931-1.4,2.886,2.886,0,0,0-2.382.4l-30.1,18.3h-4.7a3.166,3.166,0,0,1-3.124-3.1,3.08,3.08,0,0,1,3.124-3h5.781a3.15,3.15,0,0,0,0-6.3h-5.781a9.415,9.415,0,0,0-9.12,7.2,3.156,3.156,0,0,0-.255,1.2v52.7a12.51,12.51,0,0,0,12.5,12.5h55a12.458,12.458,0,0,0,11.859-8.5,3.171,3.171,0,0,0-1.975-4,3.125,3.125,0,0,0-3.953,2c-0.852,2.5-2.736,4.5-5.431,4.5H420c-3.446,0-5.75-3.1-5.75-6.5L414,10270c0.978,0.3,2.9,0,4,0h58c3.446,0,5.75,1.8,5.75,5.3v8.9H471.281Zm10.469,12.5H471.281a3.15,3.15,0,0,1,0-6.3H481.75v6.3ZM434,10264l18.726-12.6,3.328,5.7a3.015,3.015,0,0,0,.228.4c0.068,0.1.143,0.2,0.222,0.3l3.5,6.2H434Zm32,0-2.787-7.1,5.278-3.3L474,10264h-8Z" transform="translate(-408 -10244)"/>
</svg>
