<svg xmlns="http://www.w3.org/2000/svg" width="63" height="80" viewBox="0 0 63 80">
  <defs>
    <style>
      .cls-1 {
        fill: #fec009;
        fill-rule: evenodd;
      }
    </style>
  </defs>
  <path id="Forma_1" data-name="Forma 1" class="cls-1" d="M975.5,10302.3h-9.158a3.1,3.1,0,1,0,0,6.2H975.5A3.1,3.1,0,1,0,975.5,10302.3Zm0-18.9h-9.158a3.1,3.1,0,1,0,0,6.2H975.5A3.1,3.1,0,1,0,975.5,10283.4Zm12.4,15.6a3.11,3.11,0,0,0,3.1-3.1v-39.4a12.468,12.468,0,0,0-12.417-12.5H940.417A12.468,12.468,0,0,0,928,10256.5v55a12.468,12.468,0,0,0,12.417,12.5h38.166A12.468,12.468,0,0,0,991,10311.5a3.1,3.1,0,0,0-6.209,0,6.223,6.223,0,0,1-6.208,6.2H940.417a6.223,6.223,0,0,1-6.208-6.2v-55a6.223,6.223,0,0,1,6.208-6.2h38.166a6.223,6.223,0,0,1,6.208,6.2v39.4A3.11,3.11,0,0,0,987.9,10299Zm-28.428-42.6a3.04,3.04,0,0,0-4.37.5l-6.706,8.1-2.646-2.7a3.094,3.094,0,1,0-4.449,4.3l3.33,3.5c0.028,0,.056,0,0.084.1a5.714,5.714,0,0,0,3.731,1.5H948.8a5.686,5.686,0,0,0,3.84-2l7.245-8.9A3.142,3.142,0,0,0,959.468,10256.4Zm0,38.1a3.04,3.04,0,0,0-4.37.5l-6.708,8.1-2.65-2.7a3.125,3.125,0,0,0-4.437,4.4l3.33,3.4c0.026,0,.052.1,0.078,0.1a5.712,5.712,0,0,0,3.731,1.5H948.8a5.686,5.686,0,0,0,3.84-2l7.245-8.9A3.142,3.142,0,0,0,959.468,10294.5Zm16.028-30.3h-9.158a3.1,3.1,0,1,0,0,6.2H975.5A3.1,3.1,0,1,0,975.5,10264.2Zm-16.028,11.4a3.04,3.04,0,0,0-4.37.5l-6.708,8.1-2.65-2.7a3.038,3.038,0,0,0-4.39,0,3.116,3.116,0,0,0-.047,4.4l3.33,3.4c0.026,0,.052,0,0.078.1a5.712,5.712,0,0,0,3.731,1.5H948.8a5.686,5.686,0,0,0,3.84-2l7.245-8.9A3.142,3.142,0,0,0,959.468,10275.6Z" transform="translate(-928 -10244)"/>
</svg>
