<svg xmlns="http://www.w3.org/2000/svg" width="80" height="80" viewBox="0 0 80 80">
  <defs>
    <style>
      .cls-1 {
        fill: #222;
        fill-rule: evenodd;
      }
    </style>
  </defs>
  <path id="Shape_66_copy" data-name="Shape 66 copy" class="cls-1" d="M1503.63,10255.7h-3.13v-0.8a10.941,10.941,0,0,0-10.94-10.9h-45.62a10.941,10.941,0,0,0-10.94,10.9v7.8a10.962,10.962,0,0,0,10.94,11h30a3.15,3.15,0,0,0,0-6.3h-30a4.692,4.692,0,0,1-4.69-4.7v-7.8a4.672,4.672,0,0,1,4.69-4.6h45.62a4.672,4.672,0,0,1,4.69,4.6v7.8a4.692,4.692,0,0,1-4.69,4.7,3.15,3.15,0,0,0,0,6.3,10.962,10.962,0,0,0,10.94-11v-0.7h3.13a3.12,3.12,0,0,1,3.12,3.1v11.7a3.12,3.12,0,0,1-3.12,3.1h-25.94a12.511,12.511,0,0,0-12.5,12.5v1.6h-3.13a3.136,3.136,0,0,0-3.12,3.2v17.4a9.375,9.375,0,1,0,18.75,0v-17.5a3.166,3.166,0,0,0-.92-2.2,3.532,3.532,0,0,0-2.21-.9h-3.12v-1.6a6.242,6.242,0,0,1,6.25-6.2h25.94a9.389,9.389,0,0,0,9.37-9.4v-11.7A9.389,9.389,0,0,0,1503.63,10255.7Zm-32.19,58.9a3.125,3.125,0,0,1-6.25,0v-14.3h6.25v14.3Z" transform="translate(-1433 -10244)"/>
</svg>
