<svg xmlns="http://www.w3.org/2000/svg" width="24.563" height="24.97" viewBox="0 0 24.563 24.97">
  <defs>
    <style>
      .cls-1 {
        fill: #ccc;
        fill-rule: evenodd;
      }
    </style>
  </defs>
  <path class="cls-1" d="M420.483,2353.12h-4.094a1.061,1.061,0,0,1,0-2.12h4.094a7.949,7.949,0,1,0,0-15.89h-4.094a8.076,8.076,0,0,0-8.19,7.94,7.771,7.771,0,0,0,1.226,4.19,1.074,1.074,0,0,1-.288,1.46,1,1,0,0,1-1.419-.29,9.941,9.941,0,0,1-1.566-5.36,10.166,10.166,0,0,1,10.237-10.06h4.094A10.066,10.066,0,1,1,420.483,2353.12Zm-10.234,4.85a1.977,1.977,0,0,1-.786-0.16,2.1,2.1,0,0,1-1.264-1.95,1.1,1.1,0,0,1,.038-0.29l1.024-3.8a1.018,1.018,0,0,1,1.261-.73,1.057,1.057,0,0,1,.71,1.3l-0.932,3.46a0.049,0.049,0,0,0,.026-0.02l5.418-4.54a0.969,0.969,0,0,1,.645-0.24h1.023a1.061,1.061,0,0,1,0,2.12h-0.66l-5.1,4.28A1.987,1.987,0,0,1,410.249,2357.97Zm9.211-14.39a1.025,1.025,0,1,1-1.024-1.06A1.04,1.04,0,0,1,419.46,2343.58Zm5.118,0a1.024,1.024,0,1,1-1.024-1.06A1.039,1.039,0,0,1,424.578,2343.58Zm-10.237,0a1.024,1.024,0,1,1-1.023-1.06A1.039,1.039,0,0,1,414.341,2343.58Z" transform="translate(-406.156 -2333)"/>
</svg>
