<svg xmlns="http://www.w3.org/2000/svg" width="24" height="20" viewBox="0 0 24 20">
  <defs>
    <style>
      .cls-1 {
        fill: #ffc009;
        fill-rule: evenodd;
      }
    </style>
  </defs>
  <path id="Phones" class="cls-1" d="M1475.63,60.465l-1.51,2.528,1.17,0.649a1.435,1.435,0,0,1,.6,1.909c-0.75,1.463-1.48,2.794-2.18,3.957-0.73,1.21-1.56,2.487-2.46,3.8a1.565,1.565,0,0,1-2.03.456l-1.18-.656-1.52,2.528,3.41,1.895a0.159,0.159,0,0,0,.09-0.03,0.976,0.976,0,0,1,.1-0.142,75.376,75.376,0,0,0,4.9-7.118,81.221,81.221,0,0,0,3.9-7.525,1.086,1.086,0,0,1,.15-0.342l-3.44-1.905m0.76-1.264,3.44,1.9a1.431,1.431,0,0,1,.55,1.993,0.087,0.087,0,0,0,0,.05,81.135,81.135,0,0,1-4.04,7.819,78.549,78.549,0,0,1-5,7.258,1.656,1.656,0,0,1-2.15.575l-3.43-1.905a1.426,1.426,0,0,1-.56-1.993l1.52-2.527a1.559,1.559,0,0,1,2.08-.534l1.18,0.656c0.78-1.13,1.62-2.391,2.41-3.717,0.77-1.276,1.5-2.617,2.14-3.872l-1.17-.65a1.426,1.426,0,0,1-.56-1.993l1.52-2.529a1.549,1.549,0,0,1,2.07-.535h0ZM1489,73.96l-2.28,4.377h-2.28l2.28-4.377H1489Zm-4.56,0-2.28,4.377h-2.28l2.28-4.377h2.28Zm-4.56,0-2.27,4.377h-2.28l2.28-4.377h2.27Z" transform="translate(-1465 -59)"/>
</svg>
