<svg xmlns="http://www.w3.org/2000/svg" width="30" height="30" viewBox="0 0 30 30">
  <defs>
    <style>
      .cls-1 {
        fill: #f8c01c;
        fill-rule: evenodd;
      }
    </style>
  </defs>
  <path class="cls-1" d="M1001.48,5940.39h-1.17v-0.29a4.1,4.1,0,0,0-4.1-4.1H979.1a4.106,4.106,0,0,0-4.1,4.1v2.93a4.106,4.106,0,0,0,4.1,4.1h11.25a1.17,1.17,0,1,0,0-2.34H979.1a1.761,1.761,0,0,1-1.758-1.76v-2.93a1.761,1.761,0,0,1,1.758-1.76h17.109a1.762,1.762,0,0,1,1.758,1.76v2.93a1.762,1.762,0,0,1-1.758,1.76,1.17,1.17,0,1,0,0,2.34,4.1,4.1,0,0,0,4.1-4.1v-0.29h1.17a1.174,1.174,0,0,1,1.18,1.17v4.39a1.182,1.182,0,0,1-1.18,1.18h-9.722a4.69,4.69,0,0,0-4.688,4.68v0.6H985.9a1.176,1.176,0,0,0-1.17,1.18v6.54a3.516,3.516,0,1,0,7.031,0v-6.55a1.168,1.168,0,0,0-1.172-1.17h-1.172v-0.6a2.345,2.345,0,0,1,2.344-2.34h9.722a3.525,3.525,0,0,0,3.52-3.52v-4.39A3.525,3.525,0,0,0,1001.48,5940.39Zm-12.066,22.09a1.172,1.172,0,1,1-2.344,0v-5.37l2.344-.01v5.38Z" transform="translate(-975 -5936)"/>
</svg>
