<svg xmlns="http://www.w3.org/2000/svg" width="30" height="29" viewBox="0 0 30 29">
  <defs>
    <style>
      .cls-1 {
        fill: #f8c01c;
        fill-rule: evenodd;
      }
    </style>
  </defs>
  <path class="cls-1" d="M1004.63,5669.34l-12.2-12.39c-0.015-.02-0.031-0.03-0.048-0.05a3.493,3.493,0,0,0-4.681-.01c-0.017.02-.033,0.03-0.049,0.05l-12.309,12.4a1.189,1.189,0,0,0,0,1.67,1.166,1.166,0,0,0,1.656,0l0.929-.94v10.2a4.711,4.711,0,0,0,4.683,4.73h4.214a1.176,1.176,0,0,0,1.171-1.18v-9.63h4.1v9.63a1.176,1.176,0,0,0,1.171,1.18h4.1a4.709,4.709,0,0,0,4.681-4.73,1.17,1.17,0,1,0-2.34,0,2.356,2.356,0,0,1-2.341,2.37h-2.926v-9.63a1.177,1.177,0,0,0-1.171-1.18h-6.439a1.176,1.176,0,0,0-1.17,1.18v9.63h-3.044a2.357,2.357,0,0,1-2.342-2.37v-12.55l9.011-9.08a1.166,1.166,0,0,1,1.519,0l8.9,9.05v6.68a1.17,1.17,0,1,0,2.34,0v-4.31l0.93,0.95a1.165,1.165,0,0,0,.83.34,1.142,1.142,0,0,0,.82-0.34A1.192,1.192,0,0,0,1004.63,5669.34Z" transform="translate(-975 -5656)"/>
</svg>
