<svg xmlns="http://www.w3.org/2000/svg" width="21" height="28" viewBox="0 0 21 28">
  <defs>
    <style>
      .cls-1 {
        fill: #f8c01c;
        fill-rule: evenodd;
      }
    </style>
  </defs>
  <path class="cls-1" d="M982.5,5840a3.5,3.5,0,0,1-3.5-3.5v-20.99a3.5,3.5,0,0,1,3.5-3.5h8.17a1.165,1.165,0,1,1,0,2.33H982.5a1.166,1.166,0,0,0-1.167,1.17v20.99a1.173,1.173,0,0,0,1.167,1.17A1.165,1.165,0,1,1,982.5,5840Zm14.006,0h-9.337a1.165,1.165,0,1,1,0-2.33h9.337a1.173,1.173,0,0,0,1.167-1.17v-15.16a1.169,1.169,0,1,1,2.338,0v15.16A3.507,3.507,0,0,1,996.505,5840Zm2.334-17.5H993a3.5,3.5,0,0,1-3.5-3.49v-5.84a1.157,1.157,0,0,1,.72-1.07,1.173,1.173,0,0,1,1.272.25l8.17,8.16A1.166,1.166,0,0,1,998.839,5822.5Zm-7-6.51v3.02a1.165,1.165,0,0,0,1.168,1.16h3.018ZM993,5831.83a1.167,1.167,0,0,1-1.168,1.17h-7a1.167,1.167,0,0,1-1.168-1.17h0a1.164,1.164,0,0,1,1.168-1.16h7a1.164,1.164,0,0,1,1.168,1.16h0Zm2.334-4.66a1.173,1.173,0,0,1-1.167,1.17h-9.337a1.173,1.173,0,0,1-1.168-1.17h0a1.173,1.173,0,0,1,1.168-1.17h9.337a1.173,1.173,0,0,1,1.167,1.17h0Z" transform="translate(-979 -5812)"/>
</svg>
