<svg xmlns="http://www.w3.org/2000/svg" width="30" height="27" viewBox="0 0 30 27">
  <defs>
    <style>
      .cls-1 {
        fill: #f8c01c;
        fill-rule: evenodd;
      }
    </style>
  </defs>
  <path class="cls-1" d="M1002.49,5718.82h-1.25a2.481,2.481,0,0,1-2.5-2.46v-1.22h-1.25a2.481,2.481,0,0,1-2.5-2.46v-1.23a2.479,2.479,0,0,1,2.5-2.45h3.75a1.225,1.225,0,1,1,0,2.45h-3.75v1.23h1.25a2.48,2.48,0,0,1,2.5,2.46v1.22h1.25v-2.45a1.25,1.25,0,0,1,2.5,0v2.45A2.48,2.48,0,0,1,1002.49,5718.82Zm-20,17.18h-5a2.479,2.479,0,0,1-2.5-2.45v-4.91a2.481,2.481,0,0,1,2.5-2.46h1.25a2.481,2.481,0,0,1,2.5,2.46v1.22h1.25a2.481,2.481,0,0,1,2.5,2.46v1.23A2.479,2.479,0,0,1,982.49,5736Zm-5-7.36h0v4.91h5v-1.23h-1.25a2.481,2.481,0,0,1-2.5-2.46v-1.22h-1.25Zm1.25-9.82h-1.25a2.481,2.481,0,0,1-2.5-2.46v-4.91a2.479,2.479,0,0,1,2.5-2.45h5a2.479,2.479,0,0,1,2.5,2.45v1.23a2.481,2.481,0,0,1-2.5,2.46h-1.25v1.22A2.481,2.481,0,0,1,978.74,5718.82Zm3.75-7.37h-5v4.91h1.25v-1.22a2.481,2.481,0,0,1,2.5-2.46h1.25v-1.23Zm20,24.55h-5a2.479,2.479,0,0,1-2.5-2.45v-1.23a2.481,2.481,0,0,1,2.5-2.46h1.25v-1.22a2.481,2.481,0,0,1,2.5-2.46h1.25a2.48,2.48,0,0,1,2.5,2.46v4.91A2.478,2.478,0,0,1,1002.49,5736Zm-5-3.68v1.23h5v-4.91h-1.25v1.22a2.48,2.48,0,0,1-2.5,2.46h-1.25Z" transform="translate(-975 -5709)"/>
</svg>
