<svg xmlns="http://www.w3.org/2000/svg" width="20.97" height="18" viewBox="0 0 20.97 18">
  <defs>
    <style>
      .cls-1 {
        fill: #50b1e9;
        fill-rule: evenodd;
      }
    </style>
  </defs>
  <path class="cls-1" d="M1255.65,83.071l-19.2,7.614a0.717,0.717,0,0,0,.05,1.347l4.88,1.466,1.82,5.879a0.835,0.835,0,0,0,1.4.342l2.53-2.623,4.95,3.7a1.028,1.028,0,0,0,1.62-.632l3.28-15.95a1,1,0,0,0-1.33-1.142h0Zm-2.41,3.54-8.92,8.025a0.523,0.523,0,0,0-.16.312l-0.34,3.1a0.092,0.092,0,0,1-.18.019l-1.41-4.634a0.489,0.489,0,0,1,.2-0.558l10.54-6.648a0.233,0.233,0,0,1,.27.379h0Zm0,0" transform="translate(-1236 -83)"/>
</svg>
